<svg xmlns="http://www.w3.org/2000/svg" xmlns:xlink="http://www.w3.org/1999/xlink" width="500" zoomAndPan="magnify" viewBox="0 0 375 374.999991" height="500" preserveAspectRatio="xMidYMid meet" version="1.0"><rect x="-37.5" width="450" fill="#ffffff" y="-37.499999" height="449.999989" fill-opacity="1"/><rect x="-37.5" width="450" fill="#ffffff" y="-37.499999" height="449.999989" fill-opacity="1"/><path fill="#1825a0" d="M 296.695312 140.496094 C 279.6875 158.183594 262.230469 175.742188 247.472656 195.417969 C 250.835938 201.992188 256.953125 207.871094 263.128906 211.910156 C 280.746094 200.558594 296.117188 185.671875 312.316406 172.570312 C 314.40625 170.03125 320.496094 167.476562 316.78125 163.671875 C 311.289062 154.949219 304.851562 146.597656 297.019531 140.167969 Z M 235.5625 188.664062 C 235.441406 188.703125 235.609375 188.730469 235.5625 188.664062 Z M 261.0625 105.515625 C 246.078125 121.1875 233.914062 140.179688 220.242188 157.296875 C 216.46875 163.160156 210.484375 168.855469 208.351562 175.1875 C 216.816406 180.933594 226.417969 185.875 236.179688 188.628906 C 250.058594 177.265625 260.949219 162.175781 273.410156 149.085938 C 277.855469 143.148438 285.039062 137.210938 287.542969 130.617188 C 279.828125 121.433594 271.363281 112.152344 261.421875 105.261719 L 261.058594 105.515625 Z M 135.992188 91.347656 C 124.472656 102.714844 116.53125 117.820312 106.40625 130.707031 C 98.253906 142.835938 88.625 154.347656 81.539062 167.011719 C 84.113281 177.992188 93.058594 186.449219 98.621094 196.058594 C 116.773438 223.410156 136.257812 250.03125 152.738281 278.351562 C 153.308594 293.703125 148.296875 308.75 146.914062 324.011719 C 144.800781 341.695312 140.398438 359.589844 139.84375 377.195312 C 162.070312 379.097656 184.59375 378.089844 206.902344 377.519531 C 210.625 375.960938 208.113281 369.96875 209.5625 366.847656 C 212.015625 337.488281 215.558594 308.109375 216.890625 278.714844 C 213.28125 277.914062 205.210938 277.558594 207.734375 271.742188 C 209.933594 267.132812 219.8125 266.203125 217.109375 259.863281 C 204.542969 235.40625 189.738281 211.640625 175.691406 187.828125 C 172.425781 181.25 167.359375 175.976562 160.097656 174.152344 C 153.085938 170.230469 143.453125 170.078125 137.882812 164.035156 C 136.015625 156.675781 146.664062 157.171875 150.59375 154.59375 C 150.425781 148.320312 143.375 141.828125 146.925781 135.773438 C 152.792969 133.023438 157.222656 141.167969 161.515625 143.898438 C 170.457031 153.878906 184.894531 148.855469 196.257812 147.835938 C 201.105469 146.308594 209.382812 147.835938 209.550781 140.679688 C 210.589844 134.367188 214.269531 124.324219 205.917969 121.351562 C 183.046875 110.835938 159.816406 99.5625 135.992188 91.347656 Z M 221.03125 68.136719 C 211.703125 77.3125 205.574219 89.621094 198.527344 100.648438 C 195.910156 103.355469 196.777344 105.597656 200.179688 106.789062 C 207.277344 111.867188 220.496094 114.28125 220.121094 125.386719 C 220.203125 129.886719 218.609375 135.566406 219.324219 139.335938 C 231.082031 126.054688 242.4375 112.101562 251.871094 97.160156 C 242.640625 86.707031 233.089844 75.988281 221.648438 68.171875 C 221.449219 68.148438 221.230469 68.074219 221.03125 68.136719 Z M 181.871094 41.21875 C 174.359375 44.535156 170.835938 53.71875 165.304688 59.601562 C 160.09375 67.636719 152.707031 74.585938 149.066406 83.429688 C 153.246094 87.621094 160.960938 88.691406 166.359375 91.820312 C 172.402344 94.019531 178.640625 97.820312 184.703125 98.941406 C 193.570312 87.820312 201.964844 75.796875 208.570312 63.160156 C 207.65625 58.210938 201.441406 55.589844 198.1875 52 C 192.988281 48.746094 188.214844 41.988281 181.871094 41.21875 Z M 321.644531 187.648438 C 321.523438 187.6875 321.691406 187.71875 321.644531 187.648438 Z M 161.652344 127.34375 C 161.53125 127.382812 161.703125 127.410156 161.652344 127.34375 Z M 1.066406 0.0078125 C 0.730469 0.0078125 0.457031 0.132812 0.265625 0.371094 C 0.03125 0.664062 0.0078125 0.855469 0.230469 1.351562 C 1.058594 3.191406 5.738281 11.625 16.792969 31.324219 L 24.675781 45.378906 L 85.050781 93.910156 C 97.160156 103.648438 101.648438 107.253906 109.644531 113.671875 C 110.480469 112.480469 111.304688 111.292969 112.148438 110.113281 C 106.070312 105.261719 98.054688 98.859375 93.625 95.328125 C 66.277344 73.53125 36.617188 49.542969 36.046875 48.757812 C 35.925781 48.59375 35.871094 48.371094 35.9375 48.285156 C 36.167969 48 42.484375 46.308594 43.53125 46.253906 C 43.882812 46.234375 46.347656 48.148438 71.390625 68.085938 C 81.101562 75.8125 99.722656 90.695312 116.546875 104.121094 C 119.980469 99.546875 123.570312 95.117188 127.335938 90.824219 C 125.546875 89.414062 124.910156 88.898438 122.46875 86.976562 C 113.648438 80.03125 94.9375 65.207031 80.878906 54.023438 L 55.339844 33.679688 L 55.085938 30.117188 C 54.71875 24.882812 54.730469 23.84375 55.121094 23.796875 C 55.558594 23.75 66.519531 32.386719 132.566406 85.078125 C 132.789062 84.851562 133 84.617188 133.222656 84.390625 L 134.203125 83.410156 C 135.382812 83.792969 136.550781 84.207031 137.726562 84.609375 C 130.691406 78.988281 121.324219 71.519531 115.421875 66.808594 L 49.238281 13.953125 L 47.964844 13.589844 C 47.273438 13.398438 39.839844 11.191406 31.4375 8.6875 C 9.910156 2.265625 2.042969 0.0117188 1.070312 0.00390625 Z M 33.613281 13.921875 C 34.390625 13.761719 42.273438 15.929688 46.398438 17.445312 C 48.316406 18.148438 49.238281 18.953125 49.488281 20.097656 C 49.6875 21.011719 49.644531 22.773438 49.378906 26.128906 C 49.121094 29.398438 48.914062 30.621094 48.253906 32.449219 C 47.765625 33.796875 47.566406 34.136719 46.4375 35.609375 C 45.082031 37.375 44.539062 37.886719 42.550781 39.167969 C 39.488281 41.140625 29.660156 44.757812 28.636719 44.289062 C 28.375 44.167969 27.976562 43.527344 27.21875 42.039062 C 26.640625 40.898438 25.328125 38.371094 24.3125 36.40625 C 22.089844 32.105469 20.957031 29.710938 21.042969 29.433594 C 21.082031 29.320312 22.179688 28.582031 23.441406 27.796875 C 26.472656 25.921875 27.300781 25.328125 28.492188 24.164062 C 30.210938 22.484375 30.742188 21.425781 32.703125 15.664062 C 33.203125 14.210938 33.332031 13.980469 33.613281 13.921875 Z M 213.753906 148.4375 C 213.511719 148.730469 213.253906 149.003906 212.988281 149.273438 C 213.421875 149.617188 213.789062 149.941406 214.226562 150.289062 C 214.0625 149.675781 213.898438 149.054688 213.753906 148.4375 Z M 156.648438 149.019531 C 157.121094 149.921875 157.378906 150.851562 157.519531 151.777344 C 161.425781 154.910156 164.941406 157.703125 172.050781 163.441406 C 193.015625 180.355469 197.71875 184.113281 197.988281 184.109375 C 198.253906 184.109375 205.15625 189.613281 236.421875 214.765625 C 265.316406 238.015625 274.589844 245.40625 274.746094 245.351562 C 274.898438 245.296875 283.808594 252.421875 311.542969 274.742188 L 348.121094 304.164062 L 352.226562 303.800781 C 356.5 303.398438 359.050781 302.914062 361.527344 302.09375 C 364.21875 301.207031 366.8125 299.800781 368.683594 298.171875 C 369.976562 297.046875 371.441406 295.230469 372.28125 293.703125 C 374.519531 289.628906 374.992188 285.203125 374.277344 276.050781 L 374.09375 273.398438 L 349.25 253.492188 C 340.339844 246.355469 311.269531 223.15625 286.476562 203.363281 C 285.515625 204.113281 284.539062 204.867188 283.570312 205.613281 C 297.546875 216.757812 312.835938 228.972656 321.460938 235.835938 L 347.105469 256.214844 L 347.398438 259.011719 C 347.5625 260.542969 347.886719 262.496094 348.085938 263.371094 C 348.285156 264.246094 348.46875 265.261719 348.488281 265.625 C 348.523438 266.3125 348.472656 266.488281 348.234375 266.460938 C 347.808594 266.40625 339.226562 259.875 322.914062 247.132812 C 311.257812 238.03125 287.9375 219.355469 287.789062 219.019531 C 287.71875 218.867188 283.03125 215.085938 277.179688 210.480469 C 272.574219 213.875 267.882812 217.152344 263.121094 220.324219 C 261.269531 219.21875 259.460938 218.035156 257.710938 216.765625 C 267.242188 224.367188 284.585938 238.234375 292.109375 244.226562 C 322.644531 268.5625 336.636719 279.78125 336.714844 280.007812 C 336.890625 280.488281 335.839844 280.859375 331.847656 281.644531 C 330.292969 281.949219 328.855469 282.242188 328.652344 282.296875 C 328.300781 282.394531 328.03125 282.214844 322.804688 278.191406 C 319.785156 275.867188 307.210938 265.890625 294.90625 256.035156 C 282.597656 246.179688 256.179688 225.078125 236.203125 209.136719 C 218.460938 194.980469 190.808594 172.929688 169.871094 156.210938 C 164.976562 155.1875 160.433594 153.015625 156.648438 149.015625 Z M 205.613281 153.339844 C 203.871094 153.800781 202.050781 154.054688 200.238281 154.066406 C 194.6875 155.046875 188.566406 156.28125 182.511719 156.753906 C 189.929688 162.679688 194.925781 166.6875 201.871094 172.230469 C 202.226562 170.59375 202.929688 169.011719 203.941406 167.691406 C 206.503906 164.5 209.003906 161.246094 211.460938 157.953125 C 210.222656 156.960938 207.699219 154.988281 205.613281 153.339844 Z M 228.535156 193.480469 C 236.222656 199.613281 245.617188 207.109375 252.4375 212.550781 C 246.953125 207.667969 242.363281 201.835938 239.359375 195.042969 C 238.859375 195.484375 238.375 195.949219 237.871094 196.386719 C 234.710938 195.578125 231.597656 194.597656 228.535156 193.480469 Z M 354.222656 262.351562 C 354.691406 262.476562 356.480469 263.804688 362.214844 268.164062 C 368.164062 272.683594 369.796875 274.136719 370.316406 275.285156 C 370.667969 276.066406 370.90625 278.90625 370.789062 281.277344 C 370.675781 283.558594 369.945312 286.816406 369.152344 288.652344 C 368.367188 290.476562 366.179688 293.4375 364.6875 294.71875 C 362.28125 296.777344 358.964844 298.492188 354.222656 300.058594 L 351.246094 301.039062 L 350.628906 300.675781 C 350.285156 300.476562 347.230469 298.125 343.835938 295.480469 C 337.832031 290.808594 333.53125 287.222656 333.480469 286.761719 C 333.46875 286.660156 334.257812 286.480469 335.226562 286.363281 C 338.398438 285.984375 343.734375 284.054688 346.085938 282.441406 C 349.460938 280.125 351.441406 277.570312 352.554688 274.160156 C 353.234375 272.070312 353.523438 270.113281 353.75 266.128906 C 353.863281 264.15625 354.011719 262.46875 354.078125 262.390625 C 354.097656 262.363281 354.15625 262.335938 354.222656 262.351562 Z M 188.328125 182.632812 C 187.425781 185.125 192.304688 190.761719 193.59375 194.257812 C 207.945312 221.042969 224.574219 246.695312 239.003906 273.339844 C 240.332031 278.878906 233.285156 277.644531 230.101562 278.863281 C 225.417969 287.722656 227.3125 298.890625 225.417969 308.722656 C 223.839844 331.050781 219.640625 353.351562 220.003906 375.742188 C 221.570312 379.875 228.492188 377.082031 231.882812 378.140625 C 241.566406 377.671875 252.136719 379.40625 261.378906 376.976562 C 263.640625 353.699219 261.960938 330.085938 262.507812 306.6875 C 262.941406 299.15625 260.195312 290.433594 267.59375 285.472656 C 276.066406 276.503906 282.292969 266.097656 286.917969 254.957031 C 279.234375 248.808594 274.875 245.335938 274.785156 245.367188 C 274.628906 245.425781 265.355469 238.03125 236.460938 214.78125 C 205.199219 189.625 198.261719 184.082031 197.992188 184.085938 C 197.921875 184.085938 197.496094 183.785156 196.613281 183.105469 C 193.882812 182.675781 191.09375 182.566406 188.328125 182.632812 Z M 299.15625 198.796875 C 295.574219 200.65625 292.183594 202.871094 288.839844 205.226562 C 292.433594 208.097656 294.621094 209.84375 298.03125 212.566406 C 298.910156 207.949219 299.90625 203.183594 299.15625 198.796875 Z M 299.15625 198.796875 " fill-opacity="1" fill-rule="nonzero"/></svg>