<svg xmlns="http://www.w3.org/2000/svg" xmlns:xlink="http://www.w3.org/1999/xlink" width="500" zoomAndPan="magnify" viewBox="0 0 375 374.999991" height="500" preserveAspectRatio="xMidYMid meet" version="1.0"><defs><g/><clipPath id="e6667b271b"><path d="M 0 49.71875 L 375 49.71875 L 375 315.546875 L 0 315.546875 Z M 0 49.71875 " clip-rule="nonzero"/></clipPath><clipPath id="d61c4a20d5"><path d="M 15 91 L 361 91 L 361 291 L 15 291 Z M 15 91 " clip-rule="nonzero"/></clipPath><clipPath id="2f3d30ed41"><path d="M 71.988281 0 L 384.074219 120.382812 L 302.832031 331.003906 L -9.253906 210.625 Z M 71.988281 0 " clip-rule="nonzero"/></clipPath><clipPath id="0fb598fb21"><path d="M 71.988281 0 L 384.074219 120.382812 L 302.832031 331.003906 L -9.253906 210.625 Z M 71.988281 0 " clip-rule="nonzero"/></clipPath><clipPath id="77c39adf98"><path d="M 358.25 168.5 C 366.019531 142.101562 352.746094 113.550781 327.683594 102.320312 C 308.335938 93.582031 286.921875 96.824219 271.320312 108.554688 C 263.542969 114.359375 252.785156 113.902344 245.226562 107.722656 C 239.410156 102.921875 232.59375 98.871094 225.179688 96.011719 C 203.421875 87.621094 180.105469 90.269531 161.347656 101.351562 C 150.476562 107.8125 136.988281 107.4375 126.085938 101.101562 C 121.351562 98.28125 116.128906 95.984375 110.671875 94.304688 C 75.277344 83.347656 36.917969 101.070312 22.132812 134.988281 C 5.285156 173.503906 24.117188 217.832031 62.929688 232.800781 C 79 239 95.855469 239.113281 111.003906 234.445312 C 126.320312 229.707031 142.695312 236.589844 149.957031 250.894531 C 158.457031 267.519531 173.261719 281.039062 192.679688 287.394531 C 228.378906 299.035156 267.746094 281.273438 282.601562 246.816406 C 284.296875 242.785156 285.652344 238.90625 286.683594 234.757812 C 290.054688 220.863281 300.945312 210.296875 315.035156 207.636719 C 334.75 204.023438 352.066406 189.6875 358.25 168.5 Z M 358.25 168.5 " clip-rule="nonzero"/></clipPath><clipPath id="3acd56fbbe"><path d="M 120 64 L 152 64 L 152 97 L 120 97 Z M 120 64 " clip-rule="nonzero"/></clipPath><clipPath id="f0f1f99aaa"><path d="M 71.988281 0 L 384.074219 120.382812 L 302.832031 331.003906 L -9.253906 210.625 Z M 71.988281 0 " clip-rule="nonzero"/></clipPath><clipPath id="c0cecd1bb1"><path d="M 71.988281 0 L 384.074219 120.382812 L 302.832031 331.003906 L -9.253906 210.625 Z M 71.988281 0 " clip-rule="nonzero"/></clipPath><clipPath id="555a0bcbac"><path d="M 150.480469 86.085938 C 150.105469 87.050781 149.644531 87.972656 149.089844 88.847656 C 148.535156 89.71875 147.902344 90.53125 147.1875 91.28125 C 146.472656 92.03125 145.695312 92.707031 144.847656 93.300781 C 144 93.898438 143.105469 94.40625 142.160156 94.824219 C 141.210938 95.246094 140.234375 95.566406 139.222656 95.792969 C 138.214844 96.019531 137.191406 96.148438 136.15625 96.171875 C 135.121094 96.199219 134.09375 96.121094 133.074219 95.945312 C 132.054688 95.769531 131.0625 95.492188 130.09375 95.121094 C 129.128906 94.75 128.207031 94.285156 127.335938 93.730469 C 126.460938 93.175781 125.648438 92.542969 124.898438 91.828125 C 124.148438 91.117188 123.476562 90.335938 122.878906 89.488281 C 122.28125 88.644531 121.773438 87.746094 121.355469 86.800781 C 120.9375 85.855469 120.613281 84.875 120.386719 83.867188 C 120.160156 82.855469 120.03125 81.832031 120.007812 80.796875 C 119.980469 79.761719 120.058594 78.734375 120.234375 77.714844 C 120.410156 76.695312 120.6875 75.703125 121.058594 74.738281 C 121.433594 73.769531 121.894531 72.851562 122.449219 71.976562 C 123.003906 71.101562 123.636719 70.289062 124.351562 69.539062 C 125.0625 68.789062 125.84375 68.117188 126.691406 67.519531 C 127.535156 66.925781 128.433594 66.417969 129.378906 65.996094 C 130.324219 65.578125 131.304688 65.253906 132.3125 65.027344 C 133.324219 64.800781 134.347656 64.675781 135.382812 64.648438 C 136.417969 64.625 137.445312 64.699219 138.464844 64.878906 C 139.484375 65.054688 140.476562 65.328125 141.441406 65.703125 C 142.410156 66.074219 143.328125 66.539062 144.203125 67.089844 C 145.078125 67.644531 145.890625 68.277344 146.640625 68.992188 C 147.390625 69.707031 148.0625 70.484375 148.660156 71.332031 C 149.253906 72.179688 149.761719 73.074219 150.183594 74.023438 C 150.601562 74.96875 150.925781 75.945312 151.152344 76.957031 C 151.378906 77.964844 151.503906 78.988281 151.53125 80.023438 C 151.554688 81.058594 151.480469 82.085938 151.304688 83.105469 C 151.125 84.125 150.851562 85.121094 150.480469 86.085938 Z M 150.480469 86.085938 " clip-rule="nonzero"/></clipPath><clipPath id="50b7dfc335"><path d="M 221 62 L 241 62 L 241 81 L 221 81 Z M 221 62 " clip-rule="nonzero"/></clipPath><clipPath id="e6d6b8d486"><path d="M 71.988281 0 L 384.074219 120.382812 L 302.832031 331.003906 L -9.253906 210.625 Z M 71.988281 0 " clip-rule="nonzero"/></clipPath><clipPath id="106beee36f"><path d="M 71.988281 0 L 384.074219 120.382812 L 302.832031 331.003906 L -9.253906 210.625 Z M 71.988281 0 " clip-rule="nonzero"/></clipPath><clipPath id="7af5e5b7c0"><path d="M 240.121094 74.9375 C 239.902344 75.515625 239.625 76.0625 239.292969 76.585938 C 238.964844 77.105469 238.585938 77.589844 238.160156 78.039062 C 237.734375 78.484375 237.269531 78.886719 236.761719 79.242188 C 236.257812 79.597656 235.722656 79.902344 235.160156 80.152344 C 234.59375 80.402344 234.011719 80.59375 233.40625 80.730469 C 232.804688 80.867188 232.195312 80.941406 231.578125 80.957031 C 230.960938 80.972656 230.347656 80.925781 229.738281 80.820312 C 229.128906 80.714844 228.539062 80.550781 227.960938 80.328125 C 227.386719 80.105469 226.835938 79.832031 226.3125 79.5 C 225.792969 79.167969 225.308594 78.792969 224.859375 78.367188 C 224.414062 77.941406 224.011719 77.472656 223.65625 76.96875 C 223.300781 76.464844 222.996094 75.929688 222.746094 75.363281 C 222.496094 74.800781 222.304688 74.214844 222.167969 73.613281 C 222.03125 73.011719 221.957031 72.402344 221.941406 71.785156 C 221.925781 71.164062 221.972656 70.554688 222.078125 69.945312 C 222.183594 69.335938 222.347656 68.742188 222.570312 68.167969 C 222.792969 67.589844 223.070312 67.042969 223.398438 66.519531 C 223.730469 66 224.109375 65.511719 224.535156 65.066406 C 224.960938 64.617188 225.425781 64.21875 225.929688 63.863281 C 226.433594 63.507812 226.96875 63.203125 227.535156 62.953125 C 228.097656 62.703125 228.683594 62.507812 229.285156 62.375 C 229.886719 62.238281 230.496094 62.164062 231.117188 62.148438 C 231.734375 62.132812 232.347656 62.179688 232.953125 62.285156 C 233.5625 62.390625 234.15625 62.554688 234.730469 62.777344 C 235.308594 63 235.855469 63.273438 236.378906 63.605469 C 236.902344 63.933594 237.386719 64.3125 237.832031 64.738281 C 238.28125 65.164062 238.679688 65.632812 239.039062 66.136719 C 239.394531 66.640625 239.695312 67.175781 239.945312 67.742188 C 240.195312 68.304688 240.390625 68.886719 240.523438 69.492188 C 240.660156 70.09375 240.734375 70.703125 240.75 71.320312 C 240.765625 71.9375 240.71875 72.550781 240.613281 73.160156 C 240.507812 73.769531 240.34375 74.363281 240.121094 74.9375 Z M 240.121094 74.9375 " clip-rule="nonzero"/></clipPath><clipPath id="c765b474bf"><path d="M 306 227 L 336 227 L 336 258 L 306 258 Z M 306 227 " clip-rule="nonzero"/></clipPath><clipPath id="1e33886f72"><path d="M 71.988281 0 L 384.074219 120.382812 L 302.832031 331.003906 L -9.253906 210.625 Z M 71.988281 0 " clip-rule="nonzero"/></clipPath><clipPath id="4540994f90"><path d="M 71.988281 0 L 384.074219 120.382812 L 302.832031 331.003906 L -9.253906 210.625 Z M 71.988281 0 " clip-rule="nonzero"/></clipPath><clipPath id="ca78d56a86"><path d="M 334.800781 248.066406 C 334.453125 248.972656 334.015625 249.839844 333.492188 250.664062 C 332.972656 251.488281 332.375 252.25 331.703125 252.957031 C 331.03125 253.664062 330.296875 254.296875 329.5 254.855469 C 328.707031 255.417969 327.863281 255.894531 326.972656 256.289062 C 326.078125 256.683594 325.160156 256.988281 324.207031 257.203125 C 323.257812 257.417969 322.296875 257.535156 321.320312 257.558594 C 320.347656 257.582031 319.378906 257.511719 318.421875 257.34375 C 317.460938 257.179688 316.527344 256.921875 315.617188 256.570312 C 314.707031 256.21875 313.84375 255.78125 313.019531 255.261719 C 312.195312 254.742188 311.429688 254.144531 310.726562 253.472656 C 310.019531 252.800781 309.386719 252.066406 308.824219 251.269531 C 308.265625 250.472656 307.785156 249.628906 307.390625 248.738281 C 306.996094 247.847656 306.691406 246.925781 306.480469 245.976562 C 306.265625 245.027344 306.148438 244.0625 306.121094 243.089844 C 306.097656 242.117188 306.171875 241.148438 306.335938 240.1875 C 306.503906 239.226562 306.761719 238.292969 307.113281 237.386719 C 307.464844 236.476562 307.898438 235.609375 308.421875 234.785156 C 308.941406 233.964844 309.539062 233.199219 310.210938 232.492188 C 310.882812 231.789062 311.617188 231.152344 312.414062 230.59375 C 313.210938 230.03125 314.054688 229.554688 314.945312 229.160156 C 315.835938 228.765625 316.753906 228.460938 317.707031 228.246094 C 318.65625 228.035156 319.617188 227.914062 320.59375 227.890625 C 321.566406 227.867188 322.535156 227.9375 323.492188 228.105469 C 324.453125 228.269531 325.386719 228.53125 326.296875 228.878906 C 327.207031 229.230469 328.074219 229.667969 328.894531 230.1875 C 329.71875 230.710938 330.484375 231.304688 331.1875 231.976562 C 331.894531 232.648438 332.527344 233.382812 333.089844 234.179688 C 333.648438 234.976562 334.128906 235.820312 334.523438 236.710938 C 334.917969 237.601562 335.222656 238.523438 335.433594 239.472656 C 335.648438 240.425781 335.769531 241.386719 335.792969 242.359375 C 335.816406 243.335938 335.746094 244.300781 335.578125 245.261719 C 335.410156 246.222656 335.152344 247.15625 334.800781 248.066406 Z M 334.800781 248.066406 " clip-rule="nonzero"/></clipPath></defs><rect x="-37.5" width="450" fill="#ffffff" y="-37.499999" height="449.999989" fill-opacity="1"/><rect x="-37.5" width="450" fill="#ffffff" y="-37.499999" height="449.999989" fill-opacity="1"/><rect x="-37.5" width="450" fill="#f5c000" y="-37.499999" height="449.999989" fill-opacity="1"/><g clip-path="url(#e6667b271b)"><path fill="#f5c000" d="M 0 49.71875 L 374.859375 49.71875 L 374.859375 315.546875 L 0 315.546875 Z M 0 49.71875 " fill-opacity="1" fill-rule="nonzero"/></g><g clip-path="url(#d61c4a20d5)"><g clip-path="url(#2f3d30ed41)"><g clip-path="url(#0fb598fb21)"><g clip-path="url(#77c39adf98)"><path fill="#fcfdf2" d="M 52.003906 -37.773438 L -67.132812 271.097656 L 319.300781 420.15625 L 438.4375 111.28125 Z M 52.003906 -37.773438 " fill-opacity="1" fill-rule="nonzero"/></g></g></g></g><g clip-path="url(#3acd56fbbe)"><g clip-path="url(#f0f1f99aaa)"><g clip-path="url(#c0cecd1bb1)"><g clip-path="url(#555a0bcbac)"><path fill="#fcfdf2" d="M 124.070312 54.023438 L 109.378906 92.109375 L 147.464844 106.800781 L 162.15625 68.714844 Z M 124.070312 54.023438 " fill-opacity="1" fill-rule="nonzero"/></g></g></g></g><g clip-path="url(#50b7dfc335)"><g clip-path="url(#e6d6b8d486)"><g clip-path="url(#106beee36f)"><g clip-path="url(#7af5e5b7c0)"><path fill="#fcfdf2" d="M 224.367188 55.808594 L 215.601562 78.53125 L 238.324219 87.296875 L 247.089844 64.574219 Z M 224.367188 55.808594 " fill-opacity="1" fill-rule="nonzero"/></g></g></g></g><g clip-path="url(#c765b474bf)"><g clip-path="url(#1e33886f72)"><g clip-path="url(#4540994f90)"><g clip-path="url(#ca78d56a86)"><path fill="#fcfdf2" d="M 309.949219 217.890625 L 296.121094 253.734375 L 331.96875 267.5625 L 345.792969 231.714844 Z M 309.949219 217.890625 " fill-opacity="1" fill-rule="nonzero"/></g></g></g></g><g fill="#1825a0" fill-opacity="1"><g transform="translate(123.712592, 230.070023)"><g><path d="M 10.609375 -4.15625 C 8.640625 -3.382812 6.644531 -3.257812 4.625 -3.78125 C 2.601562 -4.3125 0.710938 -5.742188 -1.046875 -8.078125 C -2.816406 -10.410156 -4.320312 -13.847656 -5.5625 -18.390625 C -6.800781 -22.941406 -7.582031 -28.867188 -7.90625 -36.171875 C -8.132812 -40.890625 -8.90625 -45.6875 -10.21875 -50.5625 C -11.53125 -55.4375 -13.0625 -60.15625 -14.8125 -64.71875 C -16.5625 -69.289062 -18.210938 -73.515625 -19.765625 -77.390625 C -21.328125 -81.265625 -22.425781 -84.566406 -23.0625 -87.296875 C -23.394531 -88.628906 -23.207031 -90.179688 -22.5 -91.953125 C -21.789062 -93.722656 -20.0625 -95.144531 -17.3125 -96.21875 C -15.425781 -96.957031 -13.707031 -97.082031 -12.15625 -96.59375 C -10.613281 -96.113281 -9.316406 -95.351562 -8.265625 -94.3125 C -7.535156 -93.613281 -6.648438 -92.109375 -5.609375 -89.796875 C -4.578125 -87.484375 -3.390625 -84.734375 -2.046875 -81.546875 C -0.703125 -78.359375 0.769531 -74.992188 2.375 -71.453125 C 3.988281 -67.910156 5.742188 -64.472656 7.640625 -61.140625 C 9.535156 -57.816406 11.5625 -54.898438 13.71875 -52.390625 C 16.5 -49.210938 19.171875 -45.910156 21.734375 -42.484375 C 24.304688 -39.054688 26.519531 -35.664062 28.375 -32.3125 C 30.226562 -28.96875 31.457031 -25.828125 32.0625 -22.890625 C 32.675781 -19.953125 32.375 -17.316406 31.15625 -14.984375 C 29.9375 -12.648438 27.5625 -10.789062 24.03125 -9.40625 Z M 10.609375 -4.15625 "/></g></g></g><g fill="#1825a0" fill-opacity="1"><g transform="translate(155.248922, 215.842895)"><g><path d="M 4.21875 -16.765625 C 1.351562 -21.535156 -0.945312 -26.835938 -2.6875 -32.671875 C -4.4375 -38.503906 -5.644531 -44.460938 -6.3125 -50.546875 C -6.988281 -56.640625 -7.117188 -62.53125 -6.703125 -68.21875 C -6.296875 -73.914062 -5.359375 -78.960938 -3.890625 -83.359375 C -3.078125 -85.796875 -1.8125 -88.125 -0.09375 -90.34375 C 1.613281 -92.5625 3.601562 -94.441406 5.875 -95.984375 C 8.15625 -97.535156 10.550781 -98.503906 13.0625 -98.890625 C 13.976562 -99.035156 14.554688 -99.125 14.796875 -99.15625 C 15.046875 -99.195312 15.296875 -99.234375 15.546875 -99.265625 C 15.796875 -99.304688 16.378906 -99.398438 17.296875 -99.546875 C 21.554688 -100.191406 25.347656 -100.085938 28.671875 -99.234375 C 32.003906 -98.378906 34.609375 -96.984375 36.484375 -95.046875 C 38.359375 -93.109375 39.101562 -90.875 38.71875 -88.34375 C 38.550781 -86.695312 37.671875 -85.492188 36.078125 -84.734375 C 34.484375 -83.984375 32.601562 -83.441406 30.4375 -83.109375 C 28.84375 -82.867188 27.269531 -82.691406 25.71875 -82.578125 C 24.164062 -82.472656 22.71875 -82.316406 21.375 -82.109375 C 20.21875 -81.929688 19.253906 -81.675781 18.484375 -81.34375 C 17.722656 -81.019531 17.394531 -80.523438 17.5 -79.859375 C 17.582031 -78.765625 18.398438 -78.140625 19.953125 -77.984375 C 21.503906 -77.835938 23.378906 -77.820312 25.578125 -77.9375 C 27.785156 -78.0625 30.03125 -78.046875 32.3125 -77.890625 C 34.59375 -77.734375 36.585938 -77.101562 38.296875 -76 C 40.003906 -74.894531 41.066406 -73.007812 41.484375 -70.34375 C 41.828125 -68.082031 41.554688 -66.347656 40.671875 -65.140625 C 39.785156 -63.941406 38.515625 -63.046875 36.859375 -62.453125 C 35.203125 -61.859375 33.453125 -61.441406 31.609375 -61.203125 C 29.765625 -60.960938 27.992188 -60.671875 26.296875 -60.328125 C 24.597656 -59.984375 23.273438 -59.421875 22.328125 -58.640625 C 21.378906 -57.867188 21.03125 -56.6875 21.28125 -55.09375 C 21.75 -52.007812 23.210938 -49.671875 25.671875 -48.078125 C 28.140625 -46.492188 31.285156 -46 35.109375 -46.59375 C 35.453125 -46.632812 35.8125 -46.6875 36.1875 -46.75 C 36.5625 -46.8125 36.910156 -46.90625 37.234375 -47.03125 C 37.398438 -47.0625 37.609375 -47.09375 37.859375 -47.125 C 38.109375 -47.164062 38.316406 -47.203125 38.484375 -47.234375 C 41.648438 -47.710938 44.460938 -47.132812 46.921875 -45.5 C 49.390625 -43.875 51.359375 -41.613281 52.828125 -38.71875 C 54.296875 -35.832031 55.191406 -32.644531 55.515625 -29.15625 C 55.835938 -25.664062 55.4375 -22.273438 54.3125 -18.984375 C 53.1875 -15.703125 51.273438 -12.847656 48.578125 -10.421875 C 45.878906 -8.003906 42.191406 -6.441406 37.515625 -5.734375 L 25.890625 -3.953125 C 23.804688 -3.640625 21.390625 -3.972656 18.640625 -4.953125 C 15.890625 -5.941406 13.226562 -7.457031 10.65625 -9.5 C 8.082031 -11.539062 5.9375 -13.960938 4.21875 -16.765625 Z M 4.21875 -16.765625 "/></g></g></g><g fill="#1825a0" fill-opacity="1"><g transform="translate(208.324042, 206.205235)"><g><path d="M 21.328125 2.859375 C 16.554688 2.210938 12.90625 1.171875 10.375 -0.265625 C 7.84375 -1.710938 6.046875 -3.378906 4.984375 -5.265625 C 3.921875 -7.160156 3.351562 -9.128906 3.28125 -11.171875 C 3.207031 -13.222656 3.289062 -15.125 3.53125 -16.875 C 3.925781 -19.8125 4.691406 -22.835938 5.828125 -25.953125 C 6.972656 -29.078125 8.207031 -32.234375 9.53125 -35.421875 C 10.851562 -38.609375 11.921875 -41.679688 12.734375 -44.640625 C 13.578125 -47.753906 14.082031 -51.0625 14.25 -54.5625 C 14.414062 -58.070312 14.597656 -61.476562 14.796875 -64.78125 C 14.878906 -66.0625 14.953125 -67.90625 15.015625 -70.3125 C 15.085938 -72.71875 15.320312 -75.28125 15.71875 -78 C 16.125 -80.71875 16.785156 -83.269531 17.703125 -85.65625 C 18.617188 -88.039062 19.910156 -89.925781 21.578125 -91.3125 C 23.253906 -92.707031 25.429688 -93.226562 28.109375 -92.875 C 29.867188 -92.632812 31.582031 -92.0625 33.25 -91.15625 C 34.914062 -90.257812 35.957031 -89.785156 36.375 -89.734375 C 36.957031 -89.660156 37.664062 -89.734375 38.5 -89.953125 C 39.34375 -90.171875 40.660156 -90.332031 42.453125 -90.4375 C 44.253906 -90.539062 46.875 -90.363281 50.3125 -89.90625 C 53.488281 -89.476562 56.78125 -88.460938 60.1875 -86.859375 C 63.59375 -85.265625 66.601562 -82.945312 69.21875 -79.90625 C 71.832031 -76.875 73.695312 -73.007812 74.8125 -68.3125 C 75.925781 -63.613281 75.785156 -57.953125 74.390625 -51.328125 C 73.054688 -44.535156 70.25 -39.441406 65.96875 -36.046875 C 61.6875 -32.660156 56.070312 -31.429688 49.125 -32.359375 C 46.113281 -32.765625 43.765625 -33.484375 42.078125 -34.515625 C 40.398438 -35.554688 39.171875 -36.53125 38.390625 -37.4375 C 37.617188 -38.351562 37.0625 -38.832031 36.71875 -38.875 C 36.550781 -38.894531 36.460938 -38.867188 36.453125 -38.796875 C 36.253906 -38.472656 36.550781 -37.320312 37.34375 -35.34375 C 38.144531 -33.363281 39.070312 -30.898438 40.125 -27.953125 C 41.175781 -25.003906 42.070312 -21.882812 42.8125 -18.59375 C 43.5625 -15.300781 43.785156 -12.191406 43.484375 -9.265625 C 43.234375 -6.742188 42.304688 -4.4375 40.703125 -2.34375 C 39.109375 -0.257812 36.734375 1.289062 33.578125 2.3125 C 30.429688 3.34375 26.347656 3.523438 21.328125 2.859375 Z M 48.59375 -76.984375 C 47.332031 -77.066406 46.285156 -76.421875 45.453125 -75.046875 C 44.628906 -73.671875 44.039062 -71.984375 43.6875 -69.984375 C 43.34375 -67.984375 43.28125 -65.925781 43.5 -63.8125 C 43.726562 -61.707031 44.273438 -59.914062 45.140625 -58.4375 C 46.015625 -56.957031 47.207031 -56.113281 48.71875 -55.90625 C 49.132812 -55.851562 49.46875 -55.851562 49.71875 -55.90625 C 51.625 -56.082031 53.050781 -56.867188 54 -58.265625 C 54.945312 -59.671875 55.46875 -61.367188 55.5625 -63.359375 C 55.664062 -65.347656 55.445312 -67.351562 54.90625 -69.375 C 54.375 -71.40625 53.582031 -73.128906 52.53125 -74.546875 C 51.488281 -75.960938 50.300781 -76.757812 48.96875 -76.9375 C 48.882812 -76.945312 48.820312 -76.953125 48.78125 -76.953125 C 48.738281 -76.960938 48.675781 -76.972656 48.59375 -76.984375 Z M 48.59375 -76.984375 "/></g></g></g><g fill="#1825a0" fill-opacity="1"><g transform="translate(159.340187, 248.199477)"><g><path d="M 14.609375 -7.3125 L 2.46875 2.921875 L 1.125 1.34375 L 13.265625 -8.890625 Z M 14.609375 -7.3125 "/></g></g></g><g fill="#1825a0" fill-opacity="1"><g transform="translate(163.587145, 253.623313)"><g><path d="M 14.25 -4.5 C 15.394531 -3.507812 16.019531 -2.359375 16.125 -1.046875 C 16.238281 0.265625 15.734375 1.578125 14.609375 2.890625 L 9.796875 8.453125 L 8.25 7.125 L 12.859375 1.78125 C 13.679688 0.832031 14.066406 -0.09375 14.015625 -1 C 13.972656 -1.90625 13.546875 -2.707031 12.734375 -3.40625 C 11.898438 -4.125 11.015625 -4.4375 10.078125 -4.34375 C 9.148438 -4.25 8.257812 -3.710938 7.40625 -2.734375 L 2.890625 2.5 L 1.328125 1.140625 L 9.484375 -8.3125 L 11.046875 -6.953125 L 9.890625 -5.59375 C 10.617188 -5.8125 11.363281 -5.820312 12.125 -5.625 C 12.894531 -5.425781 13.601562 -5.050781 14.25 -4.5 Z M 14.25 -4.5 "/></g></g></g><g fill="#1825a0" fill-opacity="1"><g transform="translate(176.045167, 264.126822)"><g><path d="M 12.875 -7.59375 C 14.207031 -6.882812 15.078125 -5.898438 15.484375 -4.640625 C 15.890625 -3.378906 15.6875 -1.984375 14.875 -0.453125 L 11.4375 6.046875 L 9.625 5.09375 L 12.921875 -1.15625 C 13.503906 -2.257812 13.671875 -3.242188 13.421875 -4.109375 C 13.179688 -4.984375 12.585938 -5.675781 11.640625 -6.1875 C 10.671875 -6.695312 9.742188 -6.800781 8.859375 -6.5 C 7.972656 -6.195312 7.222656 -5.472656 6.609375 -4.328125 L 3.390625 1.78125 L 1.546875 0.8125 L 7.375 -10.21875 L 9.21875 -9.25 L 8.390625 -7.6875 C 9.035156 -8.050781 9.753906 -8.222656 10.546875 -8.203125 C 11.335938 -8.191406 12.113281 -7.988281 12.875 -7.59375 Z M 12.875 -7.59375 "/></g></g></g><g fill="#1825a0" fill-opacity="1"><g transform="translate(190.542805, 271.566176)"><g><path d="M 6.921875 2.046875 C 5.773438 1.742188 4.8125 1.210938 4.03125 0.453125 C 3.25 -0.296875 2.722656 -1.210938 2.453125 -2.296875 C 2.191406 -3.390625 2.226562 -4.5625 2.5625 -5.8125 C 2.882812 -7.03125 3.4375 -8.046875 4.21875 -8.859375 C 5.007812 -9.671875 5.929688 -10.203125 6.984375 -10.453125 C 8.046875 -10.710938 9.148438 -10.691406 10.296875 -10.390625 C 11.441406 -10.085938 12.410156 -9.5625 13.203125 -8.8125 C 13.992188 -8.0625 14.53125 -7.144531 14.8125 -6.0625 C 15.101562 -4.976562 15.082031 -3.816406 14.75 -2.578125 C 14.414062 -1.328125 13.847656 -0.300781 13.046875 0.5 C 12.242188 1.300781 11.304688 1.832031 10.234375 2.09375 C 9.160156 2.363281 8.054688 2.347656 6.921875 2.046875 Z M 7.390625 0.265625 C 8.097656 0.460938 8.8125 0.476562 9.53125 0.3125 C 10.257812 0.144531 10.90625 -0.222656 11.46875 -0.796875 C 12.03125 -1.367188 12.441406 -2.140625 12.703125 -3.109375 C 12.960938 -4.066406 12.988281 -4.9375 12.78125 -5.71875 C 12.582031 -6.5 12.21875 -7.132812 11.6875 -7.625 C 11.164062 -8.125 10.539062 -8.472656 9.8125 -8.671875 C 9.082031 -8.859375 8.367188 -8.863281 7.671875 -8.6875 C 6.972656 -8.519531 6.347656 -8.144531 5.796875 -7.5625 C 5.253906 -6.988281 4.851562 -6.222656 4.59375 -5.265625 C 4.332031 -4.273438 4.289062 -3.394531 4.46875 -2.625 C 4.65625 -1.851562 5.003906 -1.222656 5.515625 -0.734375 C 6.035156 -0.253906 6.660156 0.078125 7.390625 0.265625 Z M 7.390625 0.265625 "/></g></g></g><g fill="#1825a0" fill-opacity="1"><g transform="translate(206.258061, 275.464776)"><g><path d="M 6.5 -1.609375 L 10.859375 -11.984375 L 13.0625 -11.875 L 7.578125 0.359375 L 5.171875 0.25 L 0.859375 -12.453125 L 3.09375 -12.34375 Z M 6.5 -1.609375 "/></g></g></g><g fill="#1825a0" fill-opacity="1"><g transform="translate(220.702497, 276.103758)"><g><path d="M -0.109375 -6.359375 C -0.328125 -7.617188 -0.265625 -8.769531 0.078125 -9.8125 C 0.429688 -10.851562 1.003906 -11.707031 1.796875 -12.375 C 2.585938 -13.050781 3.53125 -13.488281 4.625 -13.6875 C 5.707031 -13.875 6.679688 -13.800781 7.546875 -13.46875 C 8.421875 -13.144531 9.113281 -12.660156 9.625 -12.015625 L 9.234375 -14.265625 L 11.296875 -14.625 L 13.4375 -2.328125 L 11.375 -1.96875 L 10.984375 -4.265625 C 10.703125 -3.484375 10.203125 -2.785156 9.484375 -2.171875 C 8.765625 -1.554688 7.875 -1.15625 6.8125 -0.96875 C 5.71875 -0.78125 4.679688 -0.878906 3.703125 -1.265625 C 2.734375 -1.660156 1.910156 -2.296875 1.234375 -3.171875 C 0.554688 -4.054688 0.109375 -5.117188 -0.109375 -6.359375 Z M 10.296875 -8.140625 C 10.140625 -9.066406 9.8125 -9.84375 9.3125 -10.46875 C 8.820312 -11.09375 8.226562 -11.535156 7.53125 -11.796875 C 6.832031 -12.054688 6.101562 -12.117188 5.34375 -11.984375 C 4.582031 -11.847656 3.914062 -11.546875 3.34375 -11.078125 C 2.78125 -10.609375 2.367188 -10 2.109375 -9.25 C 1.859375 -8.5 1.8125 -7.65625 1.96875 -6.71875 C 2.132812 -5.78125 2.460938 -4.992188 2.953125 -4.359375 C 3.453125 -3.722656 4.046875 -3.273438 4.734375 -3.015625 C 5.429688 -2.765625 6.160156 -2.707031 6.921875 -2.84375 C 7.679688 -2.976562 8.347656 -3.28125 8.921875 -3.75 C 9.492188 -4.226562 9.90625 -4.847656 10.15625 -5.609375 C 10.414062 -6.367188 10.460938 -7.210938 10.296875 -8.140625 Z M 10.296875 -8.140625 "/></g></g></g><g fill="#1825a0" fill-opacity="1"><g transform="translate(237.176566, 272.778932)"><g><path d="M 0.25 -11.609375 L 2.828125 -4.703125 C 3.035156 -4.128906 3.304688 -3.769531 3.640625 -3.625 C 3.972656 -3.476562 4.4375 -3.515625 5.03125 -3.734375 L 6.46875 -4.28125 L 7.078125 -2.640625 L 5.3125 -1.984375 C 4.226562 -1.578125 3.320312 -1.519531 2.59375 -1.8125 C 1.863281 -2.113281 1.289062 -2.832031 0.875 -3.96875 L -1.703125 -10.875 L -3.203125 -10.3125 L -3.796875 -11.90625 L -2.296875 -12.46875 L -3.390625 -15.40625 L -1.4375 -16.140625 L -0.34375 -13.203125 L 2.71875 -14.34375 L 3.3125 -12.75 Z M 0.25 -11.609375 "/></g></g></g><g fill="#1825a0" fill-opacity="1"><g transform="translate(246.327356, 269.536611)"><g><path d="M 6.3125 -3.5 C 5.289062 -2.894531 4.238281 -2.582031 3.15625 -2.5625 C 2.070312 -2.539062 1.046875 -2.8125 0.078125 -3.375 C -0.878906 -3.9375 -1.6875 -4.773438 -2.34375 -5.890625 C -3 -6.984375 -3.335938 -8.09375 -3.359375 -9.21875 C -3.390625 -10.351562 -3.125 -11.390625 -2.5625 -12.328125 C -2 -13.265625 -1.207031 -14.035156 -0.1875 -14.640625 C 0.820312 -15.242188 1.867188 -15.5625 2.953125 -15.59375 C 4.046875 -15.632812 5.078125 -15.378906 6.046875 -14.828125 C 7.015625 -14.273438 7.832031 -13.441406 8.5 -12.328125 C 9.15625 -11.210938 9.488281 -10.085938 9.5 -8.953125 C 9.519531 -7.828125 9.242188 -6.785156 8.671875 -5.828125 C 8.109375 -4.878906 7.320312 -4.101562 6.3125 -3.5 Z M 5.375 -5.0625 C 6.007812 -5.4375 6.519531 -5.941406 6.90625 -6.578125 C 7.289062 -7.210938 7.476562 -7.929688 7.46875 -8.734375 C 7.457031 -9.546875 7.195312 -10.382812 6.6875 -11.25 C 6.175781 -12.113281 5.570312 -12.742188 4.875 -13.140625 C 4.175781 -13.535156 3.46875 -13.71875 2.75 -13.6875 C 2.03125 -13.664062 1.347656 -13.460938 0.703125 -13.078125 C 0.046875 -12.691406 -0.460938 -12.1875 -0.828125 -11.5625 C -1.203125 -10.945312 -1.375 -10.242188 -1.34375 -9.453125 C -1.3125 -8.660156 -1.039062 -7.832031 -0.53125 -6.96875 C -0.0078125 -6.09375 0.585938 -5.445312 1.265625 -5.03125 C 1.941406 -4.625 2.632812 -4.429688 3.34375 -4.453125 C 4.050781 -4.472656 4.726562 -4.675781 5.375 -5.0625 Z M 5.375 -5.0625 "/></g></g></g><g fill="#1825a0" fill-opacity="1"><g transform="translate(259.848521, 261.056975)"><g><path d="M -3.96875 -10.40625 C -4.164062 -11.1875 -4.132812 -11.945312 -3.875 -12.6875 C -3.625 -13.4375 -3.132812 -14.128906 -2.40625 -14.765625 L -1 -13.140625 L -1.421875 -12.78125 C -3.171875 -11.257812 -3.21875 -9.546875 -1.5625 -7.640625 L 2.890625 -2.515625 L 1.328125 -1.140625 L -6.859375 -10.5625 L -5.296875 -11.9375 Z M -3.96875 -10.40625 "/></g></g></g><g fill="#1825a0" fill-opacity="1"><g transform="translate(267.250429, 254.676934)"><g><path d="M 4.109375 -4.609375 C 3.492188 -3.867188 2.816406 -3.3125 2.078125 -2.9375 C 1.347656 -2.5625 0.617188 -2.394531 -0.109375 -2.4375 C -0.835938 -2.476562 -1.507812 -2.726562 -2.125 -3.1875 L -0.75 -4.828125 C -0.238281 -4.460938 0.332031 -4.351562 0.96875 -4.5 C 1.613281 -4.65625 2.210938 -5.0625 2.765625 -5.71875 C 3.265625 -6.320312 3.523438 -6.90625 3.546875 -7.46875 C 3.578125 -8.039062 3.390625 -8.5 2.984375 -8.84375 C 2.554688 -9.195312 2.085938 -9.273438 1.578125 -9.078125 C 1.066406 -8.878906 0.382812 -8.472656 -0.46875 -7.859375 C -1.25 -7.296875 -1.921875 -6.867188 -2.484375 -6.578125 C -3.054688 -6.296875 -3.664062 -6.148438 -4.3125 -6.140625 C -4.957031 -6.140625 -5.585938 -6.398438 -6.203125 -6.921875 C -6.691406 -7.328125 -7.019531 -7.84375 -7.1875 -8.46875 C -7.351562 -9.09375 -7.332031 -9.773438 -7.125 -10.515625 C -6.914062 -11.265625 -6.523438 -11.984375 -5.953125 -12.671875 C -5.066406 -13.722656 -4.082031 -14.351562 -3 -14.5625 C -1.914062 -14.769531 -0.882812 -14.503906 0.09375 -13.765625 L -1.234375 -12.1875 C -1.773438 -12.5625 -2.347656 -12.691406 -2.953125 -12.578125 C -3.566406 -12.472656 -4.132812 -12.109375 -4.65625 -11.484375 C -5.125 -10.921875 -5.378906 -10.363281 -5.421875 -9.8125 C -5.460938 -9.269531 -5.285156 -8.832031 -4.890625 -8.5 C -4.578125 -8.238281 -4.234375 -8.125 -3.859375 -8.15625 C -3.484375 -8.195312 -3.101562 -8.316406 -2.71875 -8.515625 C -2.332031 -8.722656 -1.832031 -9.039062 -1.21875 -9.46875 C -0.46875 -10 0.175781 -10.398438 0.71875 -10.671875 C 1.257812 -10.953125 1.835938 -11.09375 2.453125 -11.09375 C 3.078125 -11.101562 3.691406 -10.875 4.296875 -10.40625 C 4.804688 -9.976562 5.148438 -9.441406 5.328125 -8.796875 C 5.503906 -8.148438 5.488281 -7.460938 5.28125 -6.734375 C 5.082031 -6.003906 4.691406 -5.296875 4.109375 -4.609375 Z M 4.109375 -4.609375 "/></g></g></g></svg>